<svg width="20" height="20" viewBox="0 0 20 20" fill="none" xmlns="http://www.w3.org/2000/svg">
<path d="M12.5 11.9617H11.8333C11.8333 12.1241 11.8927 12.281 12.0002 12.4028L12.5 11.9617ZM7.49999 11.9617L7.99982 12.4028C8.10733 12.281 8.16666 12.1241 8.16666 11.9617H7.49999ZM7.49999 5H8.16666H7.49999ZM10.6725 8.75086C10.673 8.38267 10.3749 8.08381 10.0067 8.08333C9.63855 8.08286 9.33969 8.38095 9.33922 8.74914L10.6725 8.75086ZM10.4715 13.6952C10.2111 13.4348 9.78903 13.4347 9.52865 13.6951C9.26826 13.9554 9.26821 14.3775 9.52852 14.6379L10.4715 13.6952ZM9.53441 14.6438C9.79473 14.9041 10.2168 14.9042 10.4772 14.6439C10.7376 14.3836 10.7377 13.9615 10.4774 13.7011L9.53441 14.6438ZM12.6667 14.1665C12.6667 15.6393 11.4727 16.8332 9.99999 16.8332V18.1665C12.2091 18.1665 14 16.3757 14 14.1665H12.6667ZM9.99999 16.8332C8.52723 16.8332 7.33332 15.6393 7.33332 14.1665H5.99999C5.99999 16.3757 7.79085 18.1665 9.99999 18.1665V16.8332ZM12.0002 12.4028C12.4154 12.8733 12.6667 13.4898 12.6667 14.1665H14C14 13.1525 13.6218 12.2252 12.9998 11.5205L12.0002 12.4028ZM7.33332 14.1665C7.33332 13.4898 7.58455 12.8733 7.99982 12.4028L7.00016 11.5205C6.37816 12.2252 5.99999 13.1525 5.99999 14.1665H7.33332ZM11.8333 5V11.9617H13.1667V5H11.8333ZM8.16666 11.9617V5H6.83332L6.83332 11.9617H8.16666ZM9.99999 3.16667C11.0125 3.16667 11.8333 3.98748 11.8333 5H13.1667C13.1667 3.2511 11.7489 1.83333 9.99999 1.83333V3.16667ZM9.99999 1.83333C8.25109 1.83333 6.83332 3.2511 6.83332 5H8.16666C8.16666 3.98748 8.98747 3.16667 9.99999 3.16667V1.83333ZM10.1667 14.1665C10.1667 14.2586 10.092 14.3332 9.99999 14.3332V15.6665C10.8284 15.6665 11.5 14.995 11.5 14.1665H10.1667ZM9.99999 14.3332C9.90794 14.3332 9.83332 14.2586 9.83332 14.1665H8.49999C8.49999 14.995 9.17156 15.6665 9.99999 15.6665V14.3332ZM9.83332 14.1665C9.83332 14.0745 9.90794 13.9999 9.99999 13.9999V12.6665C9.17156 12.6665 8.49999 13.3381 8.49999 14.1665H9.83332ZM9.99999 13.9999C10.092 13.9999 10.1667 14.0745 10.1667 14.1665H11.5C11.5 13.3381 10.8284 12.6665 9.99999 12.6665V13.9999ZM10.6667 13.334L10.6725 8.75086L9.33922 8.74914L9.33332 13.3323L10.6667 13.334ZM9.52852 14.6379L9.53441 14.6438L10.4774 13.7011L10.4715 13.6952L9.52852 14.6379Z" fill="#131A29"/>
</svg>
